# xmcd
#
# Track frame offsets: 
#        150
#        28425
#        54975
#        83382
#        110645
#        132622
#        162322
#        186305
#        213675
#        240902
#
# Disc length: 3732 seconds
#
# Revision: 3
# Processed by: cddbd v1.5.2PL0 Copyright (c) Steve Scherf et al.
# Submitted via: ExactAudioCopy v0.95b4
#
DISCID=8b0e920a
DTITLE=X-Japan - Best Of X
DYEAR=1996
DGENRE=Rock and Metal
TTITLE0=Silent Jealoasy(LIVE)
TTITLE1=Desperate Angel
TTITLE2=ых
TTITLE3=WEEK END(LIVE)
TTITLE4=CELEBRATION
TTITLE5=ENDLESS RAIN
TTITLE6=JOKER(LIVE)
TTITLE7=Sadistic Desire
TTITLE8=X
TTITLE9=Say Anything
EXTD=
EXTT0=
EXTT1=
EXTT2=
EXTT3=
EXTT4=
EXTT5=
EXTT6=
EXTT7=
EXTT8=
EXTT9=
PLAYORDER=
